<?xml version="1.0" encoding="utf-8"?>
<!-- Generator: Adobe Illustrator 23.0.5, SVG Export Plug-In . SVG Version: 6.00 Build 0)  -->
<svg version="1.1" id="Layer_1" xmlns="http://www.w3.org/2000/svg" xmlns:xlink="http://www.w3.org/1999/xlink" x="0px" y="0px"
	 viewBox="0 0 1366 1366" style="enable-background:new 0 0 1366 1366;" xml:space="preserve">
<style type="text/css">
	.st0{display:none;fill:#ff5f00;}
	.st1{fill:#ff5f00;}
	.st2{fill:url(#SVGID_1_);}
	.st3{fill:url(#SVGID_2_);}
	.st4{fill:url(#SVGID_3_);}
	.st5{font-family:'VisbyRoundCF-Medium';}
	.st6{font-size:120.2249px;}
</style>
<rect x="-195" y="-129" class="st0" width="1774" height="1612"/>
<polygon class="st1" points="628.89,403.69 627.45,404.53 628.89,404.52 628.89,403.69 "/>
<polygon class="st1" points="628.89,403.69 627.45,404.53 628.89,404.52 628.89,403.69 "/>
<polygon class="st1" points="625.47,367.8 624.04,368.64 625.48,368.63 625.47,367.8 "/>
<polygon class="st1" points="625.47,367.8 624.04,368.64 625.48,368.63 625.47,367.8 "/>
<g>
	<linearGradient id="SVGID_1_" gradientUnits="userSpaceOnUse" x1="649.016" y1="738.7293" x2="890.7241" y2="338.8123">
		<stop  offset="0" style="stop-color:#ff5f00"/>
		<stop  offset="1" style="stop-color:#000000"/>
	</linearGradient>
	<path class="st2" d="M763.05,506.46l-1.3,2.24l-61.37,105.85l-2.28,3.92l-0.63-1.11c-4.46,17.82-24.7,76.2-92.67,39.21l25.32,44.05
		c14.14,24.59,39.51,39.27,67.89,39.27c28.24,0,53.56-14.59,67.73-39.02l85.36-147.23C860.22,515.28,782.28,507.74,763.05,506.46z"
		/>
</g>
<g>
	<linearGradient id="SVGID_2_" gradientUnits="userSpaceOnUse" x1="898.1219" y1="483.0622" x2="300.4438" y2="397.3657">
		<stop  offset="0" style="stop-color:#ff5f00"/>
		<stop  offset="1" style="stop-color:#000000"/>
	</linearGradient>
	<path class="st3" d="M876.7,431.63c-14.1-24.54-39.43-39.23-67.73-39.28l-157.5-0.29c-68.19,30.41-29.01,97.21-17.88,113.79
		l2.9,0.01l122.36,0.22l4.53,0.01l-0.97,1.68c19.22,1.28,97.17,8.82,88.05,47.19l16.85-29.06l9.26-15.97
		C890.76,485.44,890.81,456.17,876.7,431.63z"/>
</g>
<g>
	<linearGradient id="SVGID_3_" gradientUnits="userSpaceOnUse" x1="524.4509" y1="338.1612" x2="814.5005" y2="876.5109">
		<stop  offset="0" style="stop-color:#ff5f00"/>
		<stop  offset="1" style="stop-color:#000000"/>
	</linearGradient>
	<path class="st4" d="M634.21,509.78l-2.26-3.92h1.63c-11.13-16.58-50.3-83.38,17.88-113.79l-64.73-0.12h-0.15
		c-1.96,0-3.92,0.07-5.83,0.21c-26.87,1.91-50.54,17.37-63.31,41.36c-6.06,11.4-9.27,24.14-9.27,36.85
		c0,13.65,3.55,26.74,10.54,38.91l85.44,148.61c67.96,36.99,88.21-21.39,92.67-39.21l-1.62-2.82L634.21,509.78z"/>
</g>
<text transform="matrix(1 0 0 1 415.9204 898.6641)" class="st5 st6">PLAYLOTTO</text>
</svg>
